G04 #@! TF.FileFunction,Copper,L1,Top,Signal*
%FSLAX46Y46*%
G04 Gerber Fmt 4.6, Leading zero omitted, Abs format (unit mm)*
G04 Created by KiCad (PCBNEW 4.0.5) date 03/31/17 09:35:13*
%MOMM*%
%LPD*%
G01*
G04 APERTURE LIST*
%ADD10C,0.100000*%
%ADD11C,0.300000*%
%ADD12R,1.700000X1.700000*%
%ADD13O,1.700000X1.700000*%
%ADD14C,2.300000*%
%ADD15R,0.600000X1.900000*%
%ADD16R,1.300000X3.350000*%
%ADD17C,1.524000*%
%ADD18C,0.250000*%
G04 APERTURE END LIST*
D10*
D11*
X145405715Y-122878571D02*
X144905715Y-122164286D01*
X144548572Y-122878571D02*
X144548572Y-121378571D01*
X145120000Y-121378571D01*
X145262858Y-121450000D01*
X145334286Y-121521429D01*
X145405715Y-121664286D01*
X145405715Y-121878571D01*
X145334286Y-122021429D01*
X145262858Y-122092857D01*
X145120000Y-122164286D01*
X144548572Y-122164286D01*
X146691429Y-122878571D02*
X146691429Y-122092857D01*
X146620000Y-121950000D01*
X146477143Y-121878571D01*
X146191429Y-121878571D01*
X146048572Y-121950000D01*
X146691429Y-122807143D02*
X146548572Y-122878571D01*
X146191429Y-122878571D01*
X146048572Y-122807143D01*
X145977143Y-122664286D01*
X145977143Y-122521429D01*
X146048572Y-122378571D01*
X146191429Y-122307143D01*
X146548572Y-122307143D01*
X146691429Y-122235714D01*
X147405715Y-121878571D02*
X147405715Y-123378571D01*
X147405715Y-121950000D02*
X147548572Y-121878571D01*
X147834286Y-121878571D01*
X147977143Y-121950000D01*
X148048572Y-122021429D01*
X148120001Y-122164286D01*
X148120001Y-122592857D01*
X148048572Y-122735714D01*
X147977143Y-122807143D01*
X147834286Y-122878571D01*
X147548572Y-122878571D01*
X147405715Y-122807143D01*
X148548572Y-121878571D02*
X149120001Y-121878571D01*
X148762858Y-121378571D02*
X148762858Y-122664286D01*
X148834286Y-122807143D01*
X148977144Y-122878571D01*
X149120001Y-122878571D01*
X149834287Y-122878571D02*
X149691429Y-122807143D01*
X149620001Y-122735714D01*
X149548572Y-122592857D01*
X149548572Y-122164286D01*
X149620001Y-122021429D01*
X149691429Y-121950000D01*
X149834287Y-121878571D01*
X150048572Y-121878571D01*
X150191429Y-121950000D01*
X150262858Y-122021429D01*
X150334287Y-122164286D01*
X150334287Y-122592857D01*
X150262858Y-122735714D01*
X150191429Y-122807143D01*
X150048572Y-122878571D01*
X149834287Y-122878571D01*
X150977144Y-122878571D02*
X150977144Y-121878571D01*
X150977144Y-122164286D02*
X151048572Y-122021429D01*
X151120001Y-121950000D01*
X151262858Y-121878571D01*
X151405715Y-121878571D01*
D12*
X158070000Y-104600000D03*
D13*
X155530000Y-104600000D03*
X152990000Y-104600000D03*
X150450000Y-104600000D03*
X147910000Y-104600000D03*
D14*
X137520000Y-122000000D03*
X158520000Y-109500000D03*
X158520000Y-122000000D03*
X137520000Y-109500000D03*
D15*
X140970000Y-111360000D03*
X141970000Y-111360000D03*
X142970000Y-111360000D03*
X143970000Y-111360000D03*
X144970000Y-111360000D03*
X145970000Y-111360000D03*
X146970000Y-111360000D03*
X147970000Y-111360000D03*
X148970000Y-111360000D03*
X149970000Y-111360000D03*
X150970000Y-111360000D03*
X151970000Y-111360000D03*
X152970000Y-111360000D03*
X153970000Y-111360000D03*
X154970000Y-111360000D03*
D16*
X157770000Y-116250000D03*
X138070000Y-116240000D03*
D17*
X158670000Y-97800000D03*
X140470000Y-99800000D03*
X141870000Y-97800000D03*
X143270000Y-99800000D03*
X144670000Y-97800000D03*
X146070000Y-99800000D03*
X147470000Y-97800000D03*
X148870000Y-99800000D03*
X150270000Y-97800000D03*
X151670000Y-99800000D03*
X153070000Y-97800000D03*
X154470000Y-99800000D03*
X139070000Y-97800000D03*
X155870000Y-97800000D03*
X137670000Y-99800000D03*
X157270000Y-99800000D03*
D18*
X140970000Y-111360000D02*
X140970000Y-108300000D01*
X137670000Y-101200000D02*
X137670000Y-99800000D01*
X140270000Y-103800000D02*
X137670000Y-101200000D01*
X140270000Y-107600000D02*
X140270000Y-103800000D01*
X140970000Y-108300000D02*
X140270000Y-107600000D01*
X141970000Y-111360000D02*
X141970000Y-108300000D01*
X139070000Y-101200000D02*
X139070000Y-97800000D01*
X140870000Y-103000000D02*
X139070000Y-101200000D01*
X140870000Y-107200000D02*
X140870000Y-103000000D01*
X141970000Y-108300000D02*
X140870000Y-107200000D01*
X142970000Y-111360000D02*
X142970000Y-108500000D01*
X140470000Y-101400000D02*
X140470000Y-99800000D01*
X141470000Y-102400000D02*
X140470000Y-101400000D01*
X141470000Y-107000000D02*
X141470000Y-102400000D01*
X142970000Y-108500000D02*
X141470000Y-107000000D01*
X143970000Y-111360000D02*
X143970000Y-108700000D01*
X141870000Y-100800000D02*
X141870000Y-97800000D01*
X142070000Y-101000000D02*
X141870000Y-100800000D01*
X142070000Y-106800000D02*
X142070000Y-101000000D01*
X143970000Y-108700000D02*
X142070000Y-106800000D01*
X144970000Y-111360000D02*
X144970000Y-108900000D01*
X143270000Y-101400000D02*
X143270000Y-99800000D01*
X142670000Y-102000000D02*
X143270000Y-101400000D01*
X142670000Y-106600000D02*
X142670000Y-102000000D01*
X144970000Y-108900000D02*
X142670000Y-106600000D01*
X146970000Y-111360000D02*
X146970000Y-110100000D01*
X144670000Y-101200000D02*
X144670000Y-97800000D01*
X143270000Y-102600000D02*
X144670000Y-101200000D01*
X143270000Y-106400000D02*
X143270000Y-102600000D01*
X146970000Y-110100000D02*
X143270000Y-106400000D01*
X147970000Y-111360000D02*
X147970000Y-109100000D01*
X146070000Y-100800000D02*
X146070000Y-99800000D01*
X143870000Y-103000000D02*
X146070000Y-100800000D01*
X143870000Y-106000000D02*
X143870000Y-103000000D01*
X146470000Y-108600000D02*
X143870000Y-106000000D01*
X147470000Y-108600000D02*
X146470000Y-108600000D01*
X147970000Y-109100000D02*
X147470000Y-108600000D01*
X149970000Y-111360000D02*
X149970000Y-108500000D01*
X147470000Y-100400000D02*
X147470000Y-97800000D01*
X144470000Y-103400000D02*
X147470000Y-100400000D01*
X144470000Y-105800000D02*
X144470000Y-103400000D01*
X146670000Y-108000000D02*
X144470000Y-105800000D01*
X149470000Y-108000000D02*
X146670000Y-108000000D01*
X149970000Y-108500000D02*
X149470000Y-108000000D01*
X150970000Y-111360000D02*
X150970000Y-107700000D01*
X148870000Y-101000000D02*
X148870000Y-99800000D01*
X148070000Y-101800000D02*
X148870000Y-101000000D01*
X146870000Y-101800000D02*
X148070000Y-101800000D01*
X145070000Y-103600000D02*
X146870000Y-101800000D01*
X145070000Y-105600000D02*
X145070000Y-103600000D01*
X146870000Y-107400000D02*
X145070000Y-105600000D01*
X150670000Y-107400000D02*
X146870000Y-107400000D01*
X150970000Y-107700000D02*
X150670000Y-107400000D01*
X152970000Y-111360000D02*
X152970000Y-107300000D01*
X150270000Y-100400000D02*
X150270000Y-97800000D01*
X148270000Y-102400000D02*
X150270000Y-100400000D01*
X147070000Y-102400000D02*
X148270000Y-102400000D01*
X145670000Y-103800000D02*
X147070000Y-102400000D01*
X145670000Y-105400000D02*
X145670000Y-103800000D01*
X147070000Y-106800000D02*
X145670000Y-105400000D01*
X152470000Y-106800000D02*
X147070000Y-106800000D01*
X152970000Y-107300000D02*
X152470000Y-106800000D01*
X153970000Y-111360000D02*
X153970000Y-106900000D01*
X151670000Y-101000000D02*
X151670000Y-99800000D01*
X151070000Y-101600000D02*
X151670000Y-101000000D01*
X149870000Y-101600000D02*
X151070000Y-101600000D01*
X148470000Y-103000000D02*
X149870000Y-101600000D01*
X147270000Y-103000000D02*
X148470000Y-103000000D01*
X146270000Y-104000000D02*
X147270000Y-103000000D01*
X146270000Y-105200000D02*
X146270000Y-104000000D01*
X147270000Y-106200000D02*
X146270000Y-105200000D01*
X153270000Y-106200000D02*
X147270000Y-106200000D01*
X153970000Y-106900000D02*
X153270000Y-106200000D01*
X152990000Y-104600000D02*
X153470000Y-104600000D01*
X153470000Y-104600000D02*
X155870000Y-102200000D01*
X155870000Y-102200000D02*
X155870000Y-97800000D01*
X150450000Y-104600000D02*
X150470000Y-104600000D01*
X150470000Y-104600000D02*
X152070000Y-103000000D01*
X152070000Y-103000000D02*
X153670000Y-103000000D01*
X153670000Y-103000000D02*
X154470000Y-102200000D01*
X154470000Y-102200000D02*
X154470000Y-99800000D01*
X147910000Y-104600000D02*
X147910000Y-104560000D01*
X147910000Y-104560000D02*
X150270000Y-102200000D01*
X150270000Y-102200000D02*
X152270000Y-102200000D01*
X152270000Y-102200000D02*
X153070000Y-101400000D01*
X153070000Y-101400000D02*
X153070000Y-97800000D01*
X155530000Y-104600000D02*
X155530000Y-103940000D01*
X155530000Y-103940000D02*
X157270000Y-102200000D01*
X157270000Y-102200000D02*
X157270000Y-99800000D01*
X158070000Y-104600000D02*
X158070000Y-102600000D01*
X158670000Y-102000000D02*
X158670000Y-97800000D01*
X158070000Y-102600000D02*
X158670000Y-102000000D01*
M02*
