<?xml version="1.0" encoding="UTF-8" standalone="no"?>
<svg
   xmlns:dc="http://purl.org/dc/elements/1.1/"
   xmlns:cc="http://creativecommons.org/ns#"
   xmlns:rdf="http://www.w3.org/1999/02/22-rdf-syntax-ns#"
   xmlns:svg="http://www.w3.org/2000/svg"
   xmlns="http://www.w3.org/2000/svg"
   xmlns:sodipodi="http://sodipodi.sourceforge.net/DTD/sodipodi-0.dtd"
   xmlns:inkscape="http://www.inkscape.org/namespaces/inkscape"
   version="1.1"
   width="29.7002cm"
   height="21.0007cm"
   viewBox="0 0 116930 82680 "
   id="svg2"
   inkscape:version="0.91 r13725"
   sodipodi:docname="camera-positive.svg">
  <metadata
     id="metadata1114">
    <rdf:RDF>
      <cc:Work
         rdf:about="">
        <dc:format>image/svg+xml</dc:format>
        <dc:type
           rdf:resource="http://purl.org/dc/dcmitype/StillImage" />
      </cc:Work>
    </rdf:RDF>
  </metadata>
  <defs
     id="defs1112" />
  <sodipodi:namedview
     pagecolor="#ffffff"
     bordercolor="#666666"
     borderopacity="1"
     objecttolerance="10"
     gridtolerance="10"
     guidetolerance="10"
     inkscape:pageopacity="0"
     inkscape:pageshadow="2"
     inkscape:window-width="1920"
     inkscape:window-height="1017"
     id="namedview1110"
     showgrid="false"
     inkscape:zoom="5.6568543"
     inkscape:cx="512.88348"
     inkscape:cy="355.50052"
     inkscape:window-x="-8"
     inkscape:window-y="-8"
     inkscape:window-maximized="1"
     inkscape:current-layer="svg2" />
  <title
     id="title4">SVG Picture created as camera-F.Cu.svg date 2017/04/16 08:09:50 </title>
  <desc
     id="desc6">Picture generated by PCBNEW </desc>
  <g
     style="fill:#000000; fill-opacity:1;stroke:#000000; stroke-opacity:1; stroke-linecap:round; stroke-linejoin:round; "
     transform="translate(0 0) scale(1 1)"
     id="g8" />
  <g
     style="fill:#000000; fill-opacity:0.0;  stroke:#000000; stroke-width:-0.000393701; stroke-opacity:1;  stroke-linecap:round; stroke-linejoin:round;"
     id="g10" />
  <g
     style="fill:#000000; fill-opacity:0.0;  stroke:#000000; stroke-width:39.3701; stroke-opacity:1;  stroke-linecap:round; stroke-linejoin:round;"
     id="g12" />
  <g
     style="fill:#000000; fill-opacity:0.0;  stroke:#000000; stroke-width:39.3701; stroke-opacity:1;  stroke-linecap:round; stroke-linejoin:round;"
     id="g18" />
  <g
     style="fill:#000000; fill-opacity:0.0;  stroke:#000000; stroke-width:39.3701; stroke-opacity:1;  stroke-linecap:round; stroke-linejoin:round;"
     id="g24" />
  <g
     style="fill:#000000; fill-opacity:0.0;  stroke:#000000; stroke-width:39.3701; stroke-opacity:1;  stroke-linecap:round; stroke-linejoin:round;"
     id="g30" />
  <g
     style="fill:#000000; fill-opacity:0.0;  stroke:#000000; stroke-width:39.3701; stroke-opacity:1;  stroke-linecap:round; stroke-linejoin:round;"
     id="g36" />
  <g
     style="fill:#000000; fill-opacity:0.0;  stroke:#000000; stroke-width:39.3701; stroke-opacity:1;  stroke-linecap:round; stroke-linejoin:round;"
     id="g42" />
  <g
     style="fill:#000000; fill-opacity:0.0;  stroke:#000000; stroke-width:39.3701; stroke-opacity:1;  stroke-linecap:round; stroke-linejoin:round;"
     id="g48" />
  <g
     style="fill:#000000; fill-opacity:0.0;  stroke:#000000; stroke-width:39.3701; stroke-opacity:1;  stroke-linecap:round; stroke-linejoin:round;"
     id="g54" />
  <g
     style="fill:#000000; fill-opacity:0.0;  stroke:#000000; stroke-width:39.3701; stroke-opacity:1;  stroke-linecap:round; stroke-linejoin:round;"
     id="g60" />
  <g
     style="fill:#000000; fill-opacity:0.0;  stroke:#000000; stroke-width:39.3701; stroke-opacity:1;  stroke-linecap:round; stroke-linejoin:round;"
     id="g68" />
  <g
     style="fill:#000000; fill-opacity:0.0;  stroke:#000000; stroke-width:39.3701; stroke-opacity:1;  stroke-linecap:round; stroke-linejoin:round;"
     id="g74" />
  <g
     style="fill:#000000; fill-opacity:0.0;  stroke:#000000; stroke-width:39.3701; stroke-opacity:1;  stroke-linecap:round; stroke-linejoin:round;"
     id="g80" />
  <g
     style="fill:#000000; fill-opacity:0.0;  stroke:#000000; stroke-width:39.3701; stroke-opacity:1;  stroke-linecap:round; stroke-linejoin:round;"
     id="g88" />
  <g
     style="fill:#000000; fill-opacity:0.0;  stroke:#000000; stroke-width:39.3701; stroke-opacity:1;  stroke-linecap:round; stroke-linejoin:round;"
     id="g94" />
  <g
     style="fill:#000000; fill-opacity:0.0;  stroke:#000000; stroke-width:39.3701; stroke-opacity:1;  stroke-linecap:round; stroke-linejoin:round;"
     id="g100" />
  <g
     style="fill:#000000; fill-opacity:0.0;  stroke:#000000; stroke-width:39.3701; stroke-opacity:1;  stroke-linecap:round; stroke-linejoin:round;"
     id="g106" />
  <g
     style="fill:#000000; fill-opacity:0.0;  stroke:#000000; stroke-width:39.3701; stroke-opacity:1;  stroke-linecap:round; stroke-linejoin:round;"
     id="g112" />
  <g
     style="fill:#000000; fill-opacity:0.0;  stroke:#000000; stroke-width:39.3701; stroke-opacity:1;  stroke-linecap:round; stroke-linejoin:round;"
     id="g118" />
  <g
     style="fill:#000000; fill-opacity:0.0;  stroke:#000000; stroke-width:39.3701; stroke-opacity:1;  stroke-linecap:round; stroke-linejoin:round;"
     id="g124" />
  <g
     style="fill:#000000; fill-opacity:0.0;  stroke:#000000; stroke-width:39.3701; stroke-opacity:1;  stroke-linecap:round; stroke-linejoin:round;"
     id="g130" />
  <g
     style="fill:#000000; fill-opacity:0.0;  stroke:#000000; stroke-width:39.3701; stroke-opacity:1;  stroke-linecap:round; stroke-linejoin:round;"
     id="g138" />
  <g
     style="fill:#000000; fill-opacity:0.0;  stroke:#000000; stroke-width:39.3701; stroke-opacity:1;  stroke-linecap:round; stroke-linejoin:round;"
     id="g144" />
  <g
     style="fill:#000000; fill-opacity:0.0;  stroke:#000000; stroke-width:39.3701; stroke-opacity:1;  stroke-linecap:round; stroke-linejoin:round;"
     id="g150" />
  <g
     style="fill:#000000; fill-opacity:0.0;  stroke:#000000; stroke-width:39.3701; stroke-opacity:1;  stroke-linecap:round; stroke-linejoin:round;"
     id="g158" />
  <g
     style="fill:#000000; fill-opacity:0.0;  stroke:#000000; stroke-width:39.3701; stroke-opacity:1;  stroke-linecap:round; stroke-linejoin:round;"
     id="g164" />
  <g
     style="fill:#000000; fill-opacity:0.0;  stroke:#000000; stroke-width:39.3701; stroke-opacity:1;  stroke-linecap:round; stroke-linejoin:round;"
     id="g170" />
  <g
     style="fill:#000000; fill-opacity:0.0;  stroke:#000000; stroke-width:39.3701; stroke-opacity:1;  stroke-linecap:round; stroke-linejoin:round;"
     id="g176" />
  <g
     style="fill:#000000; fill-opacity:0.0;  stroke:#000000; stroke-width:39.3701; stroke-opacity:1;  stroke-linecap:round; stroke-linejoin:round;"
     id="g182" />
  <g
     style="fill:#000000; fill-opacity:0.0;  stroke:#000000; stroke-width:39.3701; stroke-opacity:1;  stroke-linecap:round; stroke-linejoin:round;"
     id="g188" />
  <g
     style="fill:#000000; fill-opacity:0.0;  stroke:#000000; stroke-width:39.3701; stroke-opacity:1;  stroke-linecap:round; stroke-linejoin:round;"
     id="g196" />
  <g
     style="fill:#000000; fill-opacity:0.0;  stroke:#000000; stroke-width:39.3701; stroke-opacity:1;  stroke-linecap:round; stroke-linejoin:round;"
     id="g202" />
  <g
     style="fill:#000000; fill-opacity:0.0;  stroke:#000000; stroke-width:39.3701; stroke-opacity:1;  stroke-linecap:round; stroke-linejoin:round;"
     id="g208" />
  <g
     style="fill:#000000; fill-opacity:0.0;  stroke:#000000; stroke-width:39.3701; stroke-opacity:1;  stroke-linecap:round; stroke-linejoin:round;"
     id="g214" />
  <g
     style="fill:#000000; fill-opacity:0.0;  stroke:#000000; stroke-width:39.3701; stroke-opacity:1;  stroke-linecap:round; stroke-linejoin:round;"
     id="g220" />
  <g
     style="fill:#000000; fill-opacity:0.0;  stroke:#000000; stroke-width:39.3701; stroke-opacity:1;  stroke-linecap:round; stroke-linejoin:round;"
     id="g226" />
  <g
     style="fill:#000000; fill-opacity:0.0;  stroke:#000000; stroke-width:39.3701; stroke-opacity:1;  stroke-linecap:round; stroke-linejoin:round;"
     id="g232" />
  <g
     style="fill:#000000; fill-opacity:0.0;  stroke:#000000; stroke-width:39.3701; stroke-opacity:1;  stroke-linecap:round; stroke-linejoin:round;"
     id="g240" />
  <g
     style="fill:#000000; fill-opacity:0.0;  stroke:#000000; stroke-width:39.3701; stroke-opacity:1;  stroke-linecap:round; stroke-linejoin:round;"
     id="g246" />
  <g
     style="fill:#000000; fill-opacity:0.0;  stroke:#000000; stroke-width:39.3701; stroke-opacity:1;  stroke-linecap:round; stroke-linejoin:round;"
     id="g252" />
  <g
     style="fill:#000000; fill-opacity:0.0;  stroke:#000000; stroke-width:39.3701; stroke-opacity:1;  stroke-linecap:round; stroke-linejoin:round;"
     id="g258" />
  <g
     style="fill:#000000; fill-opacity:0.0;  stroke:#000000; stroke-width:39.3701; stroke-opacity:1;  stroke-linecap:round; stroke-linejoin:round;"
     id="g278" />
  <g
     style="fill:#000000; fill-opacity:0.0;  stroke:#000000; stroke-width:39.3701; stroke-opacity:1;  stroke-linecap:round; stroke-linejoin:round;"
     id="g284" />
  <g
     style="fill:#000000; fill-opacity:0.0;  stroke:#000000; stroke-width:39.3701; stroke-opacity:1;  stroke-linecap:round; stroke-linejoin:round;"
     id="g356" />
  <g
     style="fill:#000000; fill-opacity:0.0;  stroke:#000000; stroke-width:39.3701; stroke-opacity:1;  stroke-linecap:round; stroke-linejoin:round;"
     id="g362" />
  <g
     style="fill:#000000; fill-opacity:0.0;  stroke:#000000; stroke-width:39.3701; stroke-opacity:1;  stroke-linecap:round; stroke-linejoin:round;"
     id="g378" />
  <g
     style="fill:#000000; fill-opacity:0.0;  stroke:#000000; stroke-width:39.3701; stroke-opacity:1;  stroke-linecap:round; stroke-linejoin:round;"
     id="g404" />
  <g
     style="fill:#000000; fill-opacity:0.0;  stroke:#000000; stroke-width:39.3701; stroke-opacity:1;  stroke-linecap:round; stroke-linejoin:round;"
     id="g428" />
  <g
     style="fill:#000000; fill-opacity:0.0;  stroke:#000000; stroke-width:39.3701; stroke-opacity:1;  stroke-linecap:round; stroke-linejoin:round;"
     id="g434" />
  <g
     style="fill:#000000; fill-opacity:0.0;  stroke:#000000; stroke-width:39.3701; stroke-opacity:1;  stroke-linecap:round; stroke-linejoin:round;"
     id="g480" />
  <g
     style="fill:#000000; fill-opacity:0.0;  stroke:#000000; stroke-width:39.3701; stroke-opacity:1;  stroke-linecap:round; stroke-linejoin:round;"
     id="g556" />
  <g
     style="fill:#000000; fill-opacity:0.0;  stroke:#000000; stroke-width:39.3701; stroke-opacity:1;  stroke-linecap:round; stroke-linejoin:round;"
     id="g562" />
  <g
     style="fill:#000000; fill-opacity:0.0;  stroke:#000000; stroke-width:39.3701; stroke-opacity:1;  stroke-linecap:round; stroke-linejoin:round;"
     id="g584" />
  <g
     style="fill:#000000; fill-opacity:0.0;  stroke:#000000; stroke-width:39.3701; stroke-opacity:1;  stroke-linecap:round; stroke-linejoin:round;"
     id="g590" />
  <g
     style="fill:#000000; fill-opacity:0.0;  stroke:#000000; stroke-width:78.7402; stroke-opacity:1;  stroke-linecap:round; stroke-linejoin:round;"
     id="g596">
    <path
       d="M51863 48937 L63674 48937 "
       id="path598" />
    <path
       d="M51863 48937 L51863 36338 "
       id="path600" />
  </g>
  <g
     style="fill:#000000; fill-opacity:0.0;  stroke:#000000; stroke-width:118.11; stroke-opacity:1;  stroke-linecap:round; stroke-linejoin:round;"
     id="g602">
    <path
       d="M59486 48416 L59683 48135 "
       id="path604" />
    <path
       d="M59824 48416 L59824 47826 L59599 47826 L59543 47854 L59514 47882 L59486 47938 L59486 48023 L59514 48079 L59543 48107 L59599 48135 L59824 48135 "
       id="path606" />
    <path
       d="M58980 48416 L58980 48107 L59008 48051 L59064 48023 L59177 48023 L59233 48051 "
       id="path608" />
    <path
       d="M58980 48388 L59036 48416 L59177 48416 L59233 48388 L59261 48332 L59261 48276 L59233 48219 L59177 48191 L59036 48191 L58980 48163 "
       id="path610" />
    <path
       d="M58699 48023 L58699 48613 "
       id="path612" />
    <path
       d="M58699 48051 L58643 48023 L58530 48023 L58474 48051 L58446 48079 L58418 48135 L58418 48304 L58446 48360 L58474 48388 L58530 48416 L58643 48416 L58699 48388 "
       id="path614" />
    <path
       d="M58249 48023 L58024 48023 "
       id="path616" />
    <path
       d="M58165 47826 L58165 48332 L58136 48388 L58080 48416 L58024 48416 "
       id="path618" />
    <path
       d="M57743 48416 L57799 48388 L57827 48360 L57855 48304 L57855 48135 L57827 48079 L57799 48051 L57743 48023 L57658 48023 L57602 48051 L57574 48079 L57546 48135 L57546 48304 L57574 48360 L57602 48388 L57658 48416 L57743 48416 "
       id="path620" />
    <path
       d="M57293 48416 L57293 48023 "
       id="path622" />
    <path
       d="M57293 48135 L57265 48079 L57237 48051 L57180 48023 L57124 48023 "
       id="path624" />
  </g>
  <g
     style="fill:#000000; fill-opacity:0.0;  stroke:#000000; stroke-width:78.7402; stroke-opacity:1;  stroke-linecap:round; stroke-linejoin:round;"
     id="g626">
    <path
       d="M51863 36338 L63674 36338 "
       id="path628" />
    <path
       d="M63674 48937 L63674 36338 "
       id="path630" />
  </g>
  <g
     style="fill:#000000; fill-opacity:1.0;  stroke:#000000; stroke-width:0; stroke-opacity:1;  stroke-linecap:round; stroke-linejoin:round;"
     id="g632">
    <circle
       cx="53870.9"
       cy="37440.9"
       r="334.646"
       id="circle634" />
  </g>
  <g
     style="fill:#000000; fill-opacity:1.0;  stroke:#000000; stroke-width:39.3701; stroke-opacity:1;  stroke-linecap:round; stroke-linejoin:round;"
     id="g636" />
  <g
     style="fill:#000000; fill-opacity:1.0;  stroke:#000000; stroke-width:0; stroke-opacity:1;  stroke-linecap:round; stroke-linejoin:round;"
     id="g638">
    <circle
       cx="54870.9"
       cy="37440.9"
       r="334.646"
       id="circle640" />
  </g>
  <g
     style="fill:#000000; fill-opacity:1.0;  stroke:#000000; stroke-width:39.3701; stroke-opacity:1;  stroke-linecap:round; stroke-linejoin:round;"
     id="g642" />
  <g
     style="fill:#000000; fill-opacity:1.0;  stroke:#000000; stroke-width:669.291; stroke-opacity:1;  stroke-linecap:round; stroke-linejoin:round;"
     id="g644" />
  <g
     style="fill:#000000; fill-opacity:0.0;  stroke:#000000; stroke-width:669.291; stroke-opacity:1;  stroke-linecap:round; stroke-linejoin:round;"
     id="g646">
    <path
       d="M55870 37440 L55870 37440 "
       id="path648" />
    <path
       d="M56870 37440 L56870 37440 "
       id="path650" />
  </g>
  <g
     style="fill:#000000; fill-opacity:1.0;  stroke:#000000; stroke-width:0; stroke-opacity:1;  stroke-linecap:round; stroke-linejoin:round;"
     id="g652">
    <circle
       cx="62788.3"
       cy="48031.5"
       r="452.756"
       id="circle654" />
  </g>
  <g
     style="fill:#000000; fill-opacity:1.0;  stroke:#000000; stroke-width:39.3701; stroke-opacity:1;  stroke-linecap:round; stroke-linejoin:round;"
     id="g656" />
  <g
     style="fill:#000000; fill-opacity:1.0;  stroke:#000000; stroke-width:0; stroke-opacity:1;  stroke-linecap:round; stroke-linejoin:round;"
     id="g658">
    <circle
       cx="54520.6"
       cy="43110.2"
       r="452.756"
       id="circle660" />
  </g>
  <g
     style="fill:#000000; fill-opacity:1.0;  stroke:#000000; stroke-width:39.3701; stroke-opacity:1;  stroke-linecap:round; stroke-linejoin:round;"
     id="g662" />
  <g
     style="fill:#000000; fill-opacity:1.0;  stroke:#000000; stroke-width:0; stroke-opacity:1;  stroke-linecap:round; stroke-linejoin:round;"
     id="g664">
    <circle
       cx="54520.6"
       cy="48031.5"
       r="452.756"
       id="circle666" />
  </g>
  <g
     style="fill:#000000; fill-opacity:1.0;  stroke:#000000; stroke-width:39.3701; stroke-opacity:1;  stroke-linecap:round; stroke-linejoin:round;"
     id="g668" />
  <g
     style="fill:#000000; fill-opacity:1.0;  stroke:#000000; stroke-width:0; stroke-opacity:1;  stroke-linecap:round; stroke-linejoin:round;"
     id="g670">
    <circle
       cx="62788.3"
       cy="43110.2"
       r="452.756"
       id="circle672" />
  </g>
  <g
     style="fill:#000000; fill-opacity:1.0;  stroke:#000000; stroke-width:39.3701; stroke-opacity:1;  stroke-linecap:round; stroke-linejoin:round;"
     id="g674" />
  <g
     style="fill:#000000; fill-opacity:1.0;  stroke:#000000; stroke-width:0; stroke-opacity:1;  stroke-linecap:round; stroke-linejoin:round;"
     id="g676">
    <polyline
       style="fill-rule:evenodd;"
       points="62807,45669 62807,44488 62020,44488 62020,45669 62807,45669 "
       id="polyline678" />
    <polyline
       style="fill-rule:evenodd;"
       points="61469,44492 61469,43744 61233,43744 61233,44492 61469,44492 "
       id="polyline680" />
    <polyline
       style="fill-rule:evenodd;"
       points="61075,44492 61075,43744 60839,43744 60839,44492 61075,44492 "
       id="polyline682" />
    <polyline
       style="fill-rule:evenodd;"
       points="60681,44492 60681,43744 60445,43744 60445,44492 60681,44492 "
       id="polyline684" />
    <polyline
       style="fill-rule:evenodd;"
       points="60288,44492 60288,43744 60052,43744 60052,44492 60288,44492 "
       id="polyline686" />
    <polyline
       style="fill-rule:evenodd;"
       points="59894,44492 59894,43744 59658,43744 59658,44492 59894,44492 "
       id="polyline688" />
    <polyline
       style="fill-rule:evenodd;"
       points="59500,44492 59500,43744 59264,43744 59264,44492 59500,44492 "
       id="polyline690" />
    <polyline
       style="fill-rule:evenodd;"
       points="59107,44492 59107,43744 58870,43744 58870,44492 59107,44492 "
       id="polyline692" />
    <polyline
       style="fill-rule:evenodd;"
       points="58713,44492 58713,43744 58477,43744 58477,44492 58713,44492 "
       id="polyline694" />
    <polyline
       style="fill-rule:evenodd;"
       points="58319,44492 58319,43744 58083,43744 58083,44492 58319,44492 "
       id="polyline696" />
    <polyline
       style="fill-rule:evenodd;"
       points="57926,44492 57926,43744 57689,43744 57689,44492 57926,44492 "
       id="polyline698" />
    <polyline
       style="fill-rule:evenodd;"
       points="57532,44492 57532,43744 57296,43744 57296,44492 57532,44492 "
       id="polyline700" />
    <polyline
       style="fill-rule:evenodd;"
       points="57138,44492 57138,43744 56902,43744 56902,44492 57138,44492 "
       id="polyline702" />
    <polyline
       style="fill-rule:evenodd;"
       points="56744,44492 56744,43744 56508,43744 56508,44492 56744,44492 "
       id="polyline704" />
    <polyline
       style="fill-rule:evenodd;"
       points="56351,44492 56351,43744 56115,43744 56115,44492 56351,44492 "
       id="polyline706" />
    <polyline
       style="fill-rule:evenodd;"
       points="55957,44492 55957,43744 55721,43744 55721,44492 55957,44492 "
       id="polyline708" />
    <polyline
       style="fill-rule:evenodd;"
       points="55170,45669 55170,44488 54382,44488 54382,45669 55170,45669 "
       id="polyline710" />
    <circle
       cx="60878.8"
       cy="40629.9"
       r="334.646"
       id="circle712" />
  </g>
  <g
     style="fill:#000000; fill-opacity:1.0;  stroke:#000000; stroke-width:39.3701; stroke-opacity:1;  stroke-linecap:round; stroke-linejoin:round;"
     id="g714" />
  <g
     style="fill:#000000; fill-opacity:1.0;  stroke:#000000; stroke-width:0; stroke-opacity:1;  stroke-linecap:round; stroke-linejoin:round;"
     id="g716">
    <circle
       cx="60878.8"
       cy="39629.9"
       r="334.646"
       id="circle718" />
  </g>
  <g
     style="fill:#000000; fill-opacity:1.0;  stroke:#000000; stroke-width:39.3701; stroke-opacity:1;  stroke-linecap:round; stroke-linejoin:round;"
     id="g720" />
  <g
     style="fill:#000000; fill-opacity:1.0;  stroke:#000000; stroke-width:0; stroke-opacity:1;  stroke-linecap:round; stroke-linejoin:round;"
     id="g722">
    <circle
       cx="59878.8"
       cy="40629.9"
       r="334.646"
       id="circle724" />
  </g>
  <g
     style="fill:#000000; fill-opacity:1.0;  stroke:#000000; stroke-width:39.3701; stroke-opacity:1;  stroke-linecap:round; stroke-linejoin:round;"
     id="g726" />
  <g
     style="fill:#000000; fill-opacity:1.0;  stroke:#000000; stroke-width:0; stroke-opacity:1;  stroke-linecap:round; stroke-linejoin:round;"
     id="g728">
    <circle
       cx="59878.8"
       cy="39629.9"
       r="334.646"
       id="circle730" />
  </g>
  <g
     style="fill:#000000; fill-opacity:1.0;  stroke:#000000; stroke-width:39.3701; stroke-opacity:1;  stroke-linecap:round; stroke-linejoin:round;"
     id="g732" />
  <g
     style="fill:#000000; fill-opacity:1.0;  stroke:#000000; stroke-width:0; stroke-opacity:1;  stroke-linecap:round; stroke-linejoin:round;"
     id="g734">
    <circle
       cx="58878.8"
       cy="40629.9"
       r="334.646"
       id="circle736" />
  </g>
  <g
     style="fill:#000000; fill-opacity:1.0;  stroke:#000000; stroke-width:39.3701; stroke-opacity:1;  stroke-linecap:round; stroke-linejoin:round;"
     id="g738" />
  <g
     style="fill:#000000; fill-opacity:1.0;  stroke:#000000; stroke-width:0; stroke-opacity:1;  stroke-linecap:round; stroke-linejoin:round;"
     id="g740">
    <circle
       cx="58878.8"
       cy="39629.9"
       r="334.646"
       id="circle742" />
  </g>
  <g
     style="fill:#000000; fill-opacity:1.0;  stroke:#000000; stroke-width:39.3701; stroke-opacity:1;  stroke-linecap:round; stroke-linejoin:round;"
     id="g744" />
  <g
     style="fill:#000000; fill-opacity:1.0;  stroke:#000000; stroke-width:0; stroke-opacity:1;  stroke-linecap:round; stroke-linejoin:round;"
     id="g746">
    <circle
       cx="57878.8"
       cy="40629.9"
       r="334.646"
       id="circle748" />
  </g>
  <g
     style="fill:#000000; fill-opacity:1.0;  stroke:#000000; stroke-width:39.3701; stroke-opacity:1;  stroke-linecap:round; stroke-linejoin:round;"
     id="g750" />
  <g
     style="fill:#000000; fill-opacity:1.0;  stroke:#000000; stroke-width:0; stroke-opacity:1;  stroke-linecap:round; stroke-linejoin:round;"
     id="g752">
    <circle
       cx="57878.8"
       cy="39629.9"
       r="334.646"
       id="circle754" />
  </g>
  <g
     style="fill:#000000; fill-opacity:1.0;  stroke:#000000; stroke-width:39.3701; stroke-opacity:1;  stroke-linecap:round; stroke-linejoin:round;"
     id="g756" />
  <g
     style="fill:#000000; fill-opacity:1.0;  stroke:#000000; stroke-width:0; stroke-opacity:1;  stroke-linecap:round; stroke-linejoin:round;"
     id="g758">
    <circle
       cx="56878.8"
       cy="40629.9"
       r="334.646"
       id="circle760" />
  </g>
  <g
     style="fill:#000000; fill-opacity:1.0;  stroke:#000000; stroke-width:39.3701; stroke-opacity:1;  stroke-linecap:round; stroke-linejoin:round;"
     id="g762" />
  <g
     style="fill:#000000; fill-opacity:1.0;  stroke:#000000; stroke-width:0; stroke-opacity:1;  stroke-linecap:round; stroke-linejoin:round;"
     id="g764">
    <circle
       cx="56878.8"
       cy="39629.9"
       r="334.646"
       id="circle766" />
  </g>
  <g
     style="fill:#000000; fill-opacity:1.0;  stroke:#000000; stroke-width:39.3701; stroke-opacity:1;  stroke-linecap:round; stroke-linejoin:round;"
     id="g768" />
  <g
     style="fill:#000000; fill-opacity:1.0;  stroke:#000000; stroke-width:0; stroke-opacity:1;  stroke-linecap:round; stroke-linejoin:round;"
     id="g770">
    <circle
       cx="55878.8"
       cy="40629.9"
       r="334.646"
       id="circle772" />
  </g>
  <g
     style="fill:#000000; fill-opacity:1.0;  stroke:#000000; stroke-width:39.3701; stroke-opacity:1;  stroke-linecap:round; stroke-linejoin:round;"
     id="g774" />
  <g
     style="fill:#000000; fill-opacity:1.0;  stroke:#000000; stroke-width:0; stroke-opacity:1;  stroke-linecap:round; stroke-linejoin:round;"
     id="g776">
    <circle
       cx="55878.8"
       cy="39629.9"
       r="334.646"
       id="circle778" />
  </g>
  <g
     style="fill:#000000; fill-opacity:1.0;  stroke:#000000; stroke-width:39.3701; stroke-opacity:1;  stroke-linecap:round; stroke-linejoin:round;"
     id="g780" />
  <g
     style="fill:#000000; fill-opacity:1.0;  stroke:#000000; stroke-width:0; stroke-opacity:1;  stroke-linecap:round; stroke-linejoin:round;"
     id="g782">
    <circle
       cx="54878.8"
       cy="40629.9"
       r="334.646"
       id="circle784" />
  </g>
  <g
     style="fill:#000000; fill-opacity:1.0;  stroke:#000000; stroke-width:39.3701; stroke-opacity:1;  stroke-linecap:round; stroke-linejoin:round;"
     id="g786" />
  <g
     style="fill:#000000; fill-opacity:1.0;  stroke:#000000; stroke-width:0; stroke-opacity:1;  stroke-linecap:round; stroke-linejoin:round;"
     id="g788">
    <circle
       cx="54878.8"
       cy="39629.9"
       r="334.646"
       id="circle790" />
  </g>
  <g
     style="fill:#000000; fill-opacity:1.0;  stroke:#000000; stroke-width:39.3701; stroke-opacity:1;  stroke-linecap:round; stroke-linejoin:round;"
     id="g792" />
  <g
     style="fill:#000000; fill-opacity:1.0;  stroke:#000000; stroke-width:0; stroke-opacity:1;  stroke-linecap:round; stroke-linejoin:round;"
     id="g794">
    <circle
       cx="53878.8"
       cy="40629.9"
       r="334.646"
       id="circle796" />
  </g>
  <g
     style="fill:#000000; fill-opacity:1.0;  stroke:#000000; stroke-width:39.3701; stroke-opacity:1;  stroke-linecap:round; stroke-linejoin:round;"
     id="g798" />
  <g
     style="fill:#000000; fill-opacity:1.0;  stroke:#000000; stroke-width:0; stroke-opacity:1;  stroke-linecap:round; stroke-linejoin:round;"
     id="g800">
    <circle
       cx="53878.8"
       cy="39629.9"
       r="334.646"
       id="circle802" />
  </g>
  <g
     style="fill:#000000; fill-opacity:1.0;  stroke:#000000; stroke-width:39.3701; stroke-opacity:1;  stroke-linecap:round; stroke-linejoin:round;"
     id="g804" />
  <g
     style="fill:#000000; fill-opacity:1.0;  stroke:#000000; stroke-width:196.85; stroke-opacity:1;  stroke-linecap:round; stroke-linejoin:round;"
     id="g806" />
  <g
     style="fill:#000000; fill-opacity:0.0;  stroke:#000000; stroke-width:196.85; stroke-opacity:1;  stroke-linecap:round; stroke-linejoin:round;"
     id="g808">
    <path
       d="M61351 44118 L61351 43070 "
       id="path810" />
    <path
       d="M57878 39102 L57878 39629 "
       id="path812" />
    <path
       d="M58910 38070 L57878 39102 "
       id="path814" />
    <path
       d="M61390 38070 L58910 38070 "
       id="path816" />
    <path
       d="M62689 39370 L61390 38070 "
       id="path818" />
    <path
       d="M62689 41732 L62689 39370 "
       id="path820" />
    <path
       d="M61351 43070 L62689 41732 "
       id="path822" />
  </g>
  <g
     style="fill:#000000; fill-opacity:0.0;  stroke:#000000; stroke-width:177.165; stroke-opacity:1;  stroke-linecap:round; stroke-linejoin:round;"
     id="g824">
    <path
       d="M60170 45000 L60170 44118 "
       id="path826" />
    <path
       d="M58989 45000 L58989 44118 "
       id="path828" />
    <path
       d="M61351 44118 L61351 44763 "
       id="path830" />
    <path
       d="M57807 44763 L57807 44118 "
       id="path832" />
    <path
       d="M58044 45000 L57807 44763 "
       id="path834" />
    <path
       d="M61115 45000 L60170 45000 "
       id="path836" />
    <path
       d="M60170 45000 L58989 45000 "
       id="path838" />
    <path
       d="M58989 45000 L58044 45000 "
       id="path840" />
    <path
       d="M61351 44763 L61115 45000 "
       id="path842" />
  </g>
  <g
     style="fill:#000000; fill-opacity:0.0;  stroke:#000000; stroke-width:196.85; stroke-opacity:1;  stroke-linecap:round; stroke-linejoin:round;"
     id="g844">
    <path
       d="M60957 44118 L60957 42913 "
       id="path846" />
    <path
       d="M58878 39086 L58878 39629 "
       id="path848" />
    <path
       d="M59500 38464 L58878 39086 "
       id="path850" />
    <path
       d="M61233 38464 L59500 38464 "
       id="path852" />
    <path
       d="M62296 39527 L61233 38464 "
       id="path854" />
    <path
       d="M62296 41574 L62296 39527 "
       id="path856" />
    <path
       d="M60957 42913 L62296 41574 "
       id="path858" />
    <path
       d="M60563 44118 L60563 42755 "
       id="path860" />
    <path
       d="M59878 39110 L59878 39629 "
       id="path862" />
    <path
       d="M60130 38858 L59878 39110 "
       id="path864" />
    <path
       d="M61075 38858 L60130 38858 "
       id="path866" />
    <path
       d="M61902 39685 L61075 38858 "
       id="path868" />
    <path
       d="M61902 41417 L61902 39685 "
       id="path870" />
    <path
       d="M60563 42755 L61902 41417 "
       id="path872" />
    <path
       d="M59776 44118 L59776 42992 "
       id="path874" />
    <path
       d="M61508 40259 L60878 39629 "
       id="path876" />
    <path
       d="M61508 41259 L61508 40259 "
       id="path878" />
    <path
       d="M59776 42992 L61508 41259 "
       id="path880" />
    <path
       d="M59382 44118 L59382 42834 "
       id="path882" />
    <path
       d="M60878 41338 L60878 40629 "
       id="path884" />
    <path
       d="M59382 42834 L60878 41338 "
       id="path886" />
    <path
       d="M58595 44118 L58595 43070 "
       id="path888" />
    <path
       d="M59878 41787 L59878 40629 "
       id="path890" />
    <path
       d="M58595 43070 L59878 41787 "
       id="path892" />
    <path
       d="M58201 44118 L58201 42913 "
       id="path894" />
    <path
       d="M58878 42236 L58878 40629 "
       id="path896" />
    <path
       d="M58201 42913 L58878 42236 "
       id="path898" />
    <path
       d="M57414 44118 L57414 42834 "
       id="path900" />
    <path
       d="M57878 42370 L57878 40629 "
       id="path902" />
    <path
       d="M57414 42834 L57878 42370 "
       id="path904" />
    <path
       d="M57020 44118 L57020 41929 "
       id="path906" />
    <path
       d="M56878 41787 L56878 40629 "
       id="path908" />
    <path
       d="M57020 41929 L56878 41787 "
       id="path910" />
    <path
       d="M56626 44118 L56626 42086 "
       id="path912" />
    <path
       d="M55878 41338 L55878 40629 "
       id="path914" />
    <path
       d="M56626 42086 L55878 41338 "
       id="path916" />
    <path
       d="M56233 44118 L56233 42362 "
       id="path918" />
    <path
       d="M54878 41007 L54878 40629 "
       id="path920" />
    <path
       d="M56233 42362 L54878 41007 "
       id="path922" />
    <path
       d="M55839 44118 L55839 42637 "
       id="path924" />
    <path
       d="M55839 42637 L53878 40677 "
       id="path926" />
    <path
       d="M53878 40677 L53878 40629 "
       id="path928" />
    <path
       d="M55878 39629 L55878 37448 "
       id="path930" />
    <path
       d="M55878 37448 L55870 37440 "
       id="path932" />
    <path
       d="M56878 39629 L56878 37448 "
       id="path934" />
    <path
       d="M56878 37448 L56870 37440 "
       id="path936" />
    <path
       d="M54878 39629 L54878 37448 "
       id="path938" />
    <path
       d="M54878 37448 L54870 37440 "
       id="path940" />
    <path
       d="M53878 39629 L53878 37448 "
       id="path942" />
    <path
       d="M53878 37448 L53870 37440 "
       id="path944" />
  </g>
  <g
     style="fill:#000000; fill-opacity:1.0;  stroke:#000000; stroke-width:236.22; stroke-opacity:1;  stroke-linecap:round; stroke-linejoin:round;"
     id="g946">
    <polyline
       style="fill-rule:evenodd;"
       points="52335,48464 53740,48464 53701,48369 53634,48208 53634,48206 53633,48203 53634,48030 53634,47856 53635,47853 53635,47851 53767,47532 53768,47532 53769,47530 54018,47280 54021,47279 54022,47278 54182,47212 54343,47145 54345,47145 54348,47144 54522,47145 54695,47145 54698,47146 54700,47146 55019,47278 55019,47279 55021,47280 55271,47529 55272,47532 55273,47532 55339,47693 55406,47854 55406,47856 55407,47859 55406,48032 55406,48206 55405,48209 55405,48211 55300,48464 56635,48464 56635,47244 60397,47244 60397,48464 62008,48464 61969,48369 61902,48208 61902,48206 61901,48203 61902,48030 61902,47856 61903,47853 61903,47851 62035,47532 62035,47532 62036,47530 62285,47280 62289,47279 62289,47278 62450,47212 62611,47145 62613,47145 62615,47144 62789,47145 62963,47145 62965,47146 62968,47146 63201,47243 63201,45857 63193,45869 63175,45914 63146,45943 63124,45977 63086,46002 63053,46036 63013,46052 62979,46076 62936,46084 62894,46102 62849,46102 62807,46110 62020,46110 61975,46102 61934,46102 61900,46088 61860,46080 61820,46055 61775,46036 61746,46007 61712,45985 61686,45948 61653,45914 61637,45875 61613,45841 61605,45797 61587,45755 61587,45711 61578,45669 61578,45273 61483,45368 61399,45425 61314,45481 61115,45521 58044,45521 57844,45481 57675,45368 57439,45132 57376,45039 57326,44963 57320,44933 57296,44933 57214,44918 57138,44933 56902,44933 56820,44918 56744,44933 56508,44933 56427,44918 56351,44933 56115,44933 56033,44918 55957,44933 55721,44933 55611,44913 55611,45669 55603,45714 55603,45755 55589,45789 55581,45829 55556,45869 55537,45914 55508,45943 55486,45977 55448,46002 55415,46036 55376,46052 55341,46076 55298,46084 55256,46102 55212,46102 55170,46110 54382,46110 54337,46102 54296,46102 54262,46088 54222,46080 54182,46055 54137,46036 54108,46007 54074,45985 54049,45948 54015,45914 53999,45875 53975,45841 53967,45797 53949,45755 53949,45711 53941,45669 53941,44488 53949,44443 53949,44402 53963,44367 53971,44327 53996,44288 54015,44242 54044,44213 54066,44180 54103,44154 54137,44121 54176,44104 54210,44081 54254,44072 54296,44055 54340,44055 54382,44046 55170,44046 55215,44055 55256,44055 55279,44064 55279,43744 55307,43594 55307,43526 55273,43608 55272,43608 55271,43611 55022,43860 55019,43862 55019,43863 54858,43929 54697,43995 54695,43995 54692,43996 54519,43996 54345,43996 54342,43995 54340,43995 54022,43863 54021,43862 54019,43861 53770,43612 53768,43608 53767,43608 53701,43447 53634,43287 53634,43284 53633,43282 53634,43108 53634,42934 53635,42932 53635,42930 53767,42611 53768,42611 53769,42609 54018,42359 54021,42358 54022,42357 54182,42291 54343,42224 54345,42224 54348,42223 54522,42224 54674,42224 53847,41397 53726,41397 53444,41281 53228,41065 53111,40783 53110,40477 53227,40195 53293,40129 53228,40065 53111,39783 53110,39477 53227,39195 53347,39075 53347,38003 53220,37876 53103,37594 53103,37288 53219,37006 53414,36811 52335,36811 52335,48464 "
       id="polyline948" />
    <polyline
       style="fill-rule:evenodd;"
       points="61882,43291 61882,43604 61910,43744 61910,44064 61934,44055 61978,44055 62020,44046 62807,44046 62853,44055 62894,44055 62928,44069 62968,44076 63008,44102 63053,44121 63082,44150 63115,44171 63141,44209 63175,44242 63191,44282 63201,44297 63201,43898 63125,43929 62965,43995 62962,43995 62960,43996 62786,43996 62612,43996 62610,43995 62608,43995 62289,43863 62289,43862 62287,43861 62037,43612 62036,43608 62035,43608 61969,43447 61902,43287 61902,43284 61901,43282 61901,43272 61882,43291 "
       id="polyline950" />
    <polyline
       style="fill-rule:evenodd;"
       points="63180,41935 63066,42106 63065,42108 62949,42224 62963,42224 62965,42225 62968,42225 63201,42321 63201,41831 63180,41935 "
       id="polyline952" />
    <polyline
       style="fill-rule:evenodd;"
       points="57413,36883 57580,37132 57638,37425 57638,37455 57580,37749 57413,37998 57410,38001 57410,38865 57502,38726 58534,37695 58610,37644 58706,37579 58910,37539 61390,37539 61594,37579 61766,37695 63065,38994 63180,39166 63201,39271 63201,36811 57306,36811 57413,36883 "
       id="polyline954" />
    <polyline
       style="fill-rule:evenodd;"
       points="54370,36855 54414,36811 54326,36811 54370,36855 "
       id="polyline956" />
    <polyline
       style="fill-rule:evenodd;"
       points="55370,36854 55435,36811 55326,36811 55370,36854 "
       id="polyline958" />
    <polyline
       style="fill-rule:evenodd;"
       points="56370,36854 56435,36811 56306,36811 56370,36854 "
       id="polyline960" />
  </g>
  <g
     style="fill:#FFFFFF; fill-opacity:1.0;  stroke:#FFFFFF; stroke-width:236.22; stroke-opacity:1;  stroke-linecap:round; stroke-linejoin:round;"
     id="g962" />
  <g
     style="fill:#FFFFFF; fill-opacity:1.0;  stroke:#FFFFFF; stroke-width:0; stroke-opacity:1;  stroke-linecap:round; stroke-linejoin:round;"
     id="g964">
    <circle
       cx="53870.9"
       cy="37440.9"
       r="137.795"
       id="circle966" />
  </g>
  <g
     style="fill:#FFFFFF; fill-opacity:1.0;  stroke:#FFFFFF; stroke-width:39.3701; stroke-opacity:1;  stroke-linecap:round; stroke-linejoin:round;"
     id="g968" />
  <g
     style="fill:#FFFFFF; fill-opacity:1.0;  stroke:#FFFFFF; stroke-width:0; stroke-opacity:1;  stroke-linecap:round; stroke-linejoin:round;"
     id="g970">
    <circle
       cx="54870.9"
       cy="37440.9"
       r="137.795"
       id="circle972" />
  </g>
  <g
     style="fill:#FFFFFF; fill-opacity:1.0;  stroke:#FFFFFF; stroke-width:39.3701; stroke-opacity:1;  stroke-linecap:round; stroke-linejoin:round;"
     id="g974" />
  <g
     style="fill:#FFFFFF; fill-opacity:1.0;  stroke:#FFFFFF; stroke-width:0; stroke-opacity:1;  stroke-linecap:round; stroke-linejoin:round;"
     id="g976">
    <circle
       cx="55870.9"
       cy="37440.9"
       r="137.795"
       id="circle978" />
  </g>
  <g
     style="fill:#FFFFFF; fill-opacity:1.0;  stroke:#FFFFFF; stroke-width:39.3701; stroke-opacity:1;  stroke-linecap:round; stroke-linejoin:round;"
     id="g980" />
  <g
     style="fill:#FFFFFF; fill-opacity:1.0;  stroke:#FFFFFF; stroke-width:0; stroke-opacity:1;  stroke-linecap:round; stroke-linejoin:round;"
     id="g982">
    <circle
       cx="56870.9"
       cy="37440.9"
       r="137.795"
       id="circle984" />
  </g>
  <g
     style="fill:#FFFFFF; fill-opacity:1.0;  stroke:#FFFFFF; stroke-width:39.3701; stroke-opacity:1;  stroke-linecap:round; stroke-linejoin:round;"
     id="g986" />
  <g
     style="fill:#FFFFFF; fill-opacity:1.0;  stroke:#FFFFFF; stroke-width:0; stroke-opacity:1;  stroke-linecap:round; stroke-linejoin:round;"
     id="g988">
    <circle
       cx="62788.3"
       cy="48031.5"
       r="433.071"
       id="circle990" />
  </g>
  <g
     style="fill:#FFFFFF; fill-opacity:1.0;  stroke:#FFFFFF; stroke-width:39.3701; stroke-opacity:1;  stroke-linecap:round; stroke-linejoin:round;"
     id="g992" />
  <g
     style="fill:#FFFFFF; fill-opacity:1.0;  stroke:#FFFFFF; stroke-width:0; stroke-opacity:1;  stroke-linecap:round; stroke-linejoin:round;"
     id="g994">
    <circle
       cx="54520.6"
       cy="43110.2"
       r="433.071"
       id="circle996" />
  </g>
  <g
     style="fill:#FFFFFF; fill-opacity:1.0;  stroke:#FFFFFF; stroke-width:39.3701; stroke-opacity:1;  stroke-linecap:round; stroke-linejoin:round;"
     id="g998" />
  <g
     style="fill:#FFFFFF; fill-opacity:1.0;  stroke:#FFFFFF; stroke-width:0; stroke-opacity:1;  stroke-linecap:round; stroke-linejoin:round;"
     id="g1000">
    <circle
       cx="54520.6"
       cy="48031.5"
       r="433.071"
       id="circle1002" />
  </g>
  <g
     style="fill:#FFFFFF; fill-opacity:1.0;  stroke:#FFFFFF; stroke-width:39.3701; stroke-opacity:1;  stroke-linecap:round; stroke-linejoin:round;"
     id="g1004" />
  <g
     style="fill:#FFFFFF; fill-opacity:1.0;  stroke:#FFFFFF; stroke-width:0; stroke-opacity:1;  stroke-linecap:round; stroke-linejoin:round;"
     id="g1006">
    <circle
       cx="62788.3"
       cy="43110.2"
       r="433.071"
       id="circle1008" />
  </g>
  <g
     style="fill:#FFFFFF; fill-opacity:1.0;  stroke:#FFFFFF; stroke-width:39.3701; stroke-opacity:1;  stroke-linecap:round; stroke-linejoin:round;"
     id="g1010" />
  <g
     style="fill:#FFFFFF; fill-opacity:1.0;  stroke:#FFFFFF; stroke-width:0; stroke-opacity:1;  stroke-linecap:round; stroke-linejoin:round;"
     id="g1012">
    <circle
       cx="60878.8"
       cy="40629.9"
       r="137.795"
       id="circle1014" />
  </g>
  <g
     style="fill:#FFFFFF; fill-opacity:1.0;  stroke:#FFFFFF; stroke-width:39.3701; stroke-opacity:1;  stroke-linecap:round; stroke-linejoin:round;"
     id="g1016" />
  <g
     style="fill:#FFFFFF; fill-opacity:1.0;  stroke:#FFFFFF; stroke-width:0; stroke-opacity:1;  stroke-linecap:round; stroke-linejoin:round;"
     id="g1018">
    <circle
       cx="60878.8"
       cy="39629.9"
       r="137.795"
       id="circle1020" />
  </g>
  <g
     style="fill:#FFFFFF; fill-opacity:1.0;  stroke:#FFFFFF; stroke-width:39.3701; stroke-opacity:1;  stroke-linecap:round; stroke-linejoin:round;"
     id="g1022" />
  <g
     style="fill:#FFFFFF; fill-opacity:1.0;  stroke:#FFFFFF; stroke-width:0; stroke-opacity:1;  stroke-linecap:round; stroke-linejoin:round;"
     id="g1024">
    <circle
       cx="59878.8"
       cy="40629.9"
       r="137.795"
       id="circle1026" />
  </g>
  <g
     style="fill:#FFFFFF; fill-opacity:1.0;  stroke:#FFFFFF; stroke-width:39.3701; stroke-opacity:1;  stroke-linecap:round; stroke-linejoin:round;"
     id="g1028" />
  <g
     style="fill:#FFFFFF; fill-opacity:1.0;  stroke:#FFFFFF; stroke-width:0; stroke-opacity:1;  stroke-linecap:round; stroke-linejoin:round;"
     id="g1030">
    <circle
       cx="59878.8"
       cy="39629.9"
       r="137.795"
       id="circle1032" />
  </g>
  <g
     style="fill:#FFFFFF; fill-opacity:1.0;  stroke:#FFFFFF; stroke-width:39.3701; stroke-opacity:1;  stroke-linecap:round; stroke-linejoin:round;"
     id="g1034" />
  <g
     style="fill:#FFFFFF; fill-opacity:1.0;  stroke:#FFFFFF; stroke-width:0; stroke-opacity:1;  stroke-linecap:round; stroke-linejoin:round;"
     id="g1036">
    <circle
       cx="58878.8"
       cy="40629.9"
       r="137.795"
       id="circle1038" />
  </g>
  <g
     style="fill:#FFFFFF; fill-opacity:1.0;  stroke:#FFFFFF; stroke-width:39.3701; stroke-opacity:1;  stroke-linecap:round; stroke-linejoin:round;"
     id="g1040" />
  <g
     style="fill:#FFFFFF; fill-opacity:1.0;  stroke:#FFFFFF; stroke-width:0; stroke-opacity:1;  stroke-linecap:round; stroke-linejoin:round;"
     id="g1042">
    <circle
       cx="58878.8"
       cy="39629.9"
       r="137.795"
       id="circle1044" />
  </g>
  <g
     style="fill:#FFFFFF; fill-opacity:1.0;  stroke:#FFFFFF; stroke-width:39.3701; stroke-opacity:1;  stroke-linecap:round; stroke-linejoin:round;"
     id="g1046" />
  <g
     style="fill:#FFFFFF; fill-opacity:1.0;  stroke:#FFFFFF; stroke-width:0; stroke-opacity:1;  stroke-linecap:round; stroke-linejoin:round;"
     id="g1048">
    <circle
       cx="57878.8"
       cy="40629.9"
       r="137.795"
       id="circle1050" />
  </g>
  <g
     style="fill:#FFFFFF; fill-opacity:1.0;  stroke:#FFFFFF; stroke-width:39.3701; stroke-opacity:1;  stroke-linecap:round; stroke-linejoin:round;"
     id="g1052" />
  <g
     style="fill:#FFFFFF; fill-opacity:1.0;  stroke:#FFFFFF; stroke-width:0; stroke-opacity:1;  stroke-linecap:round; stroke-linejoin:round;"
     id="g1054">
    <circle
       cx="57878.8"
       cy="39629.9"
       r="137.795"
       id="circle1056" />
  </g>
  <g
     style="fill:#FFFFFF; fill-opacity:1.0;  stroke:#FFFFFF; stroke-width:39.3701; stroke-opacity:1;  stroke-linecap:round; stroke-linejoin:round;"
     id="g1058" />
  <g
     style="fill:#FFFFFF; fill-opacity:1.0;  stroke:#FFFFFF; stroke-width:0; stroke-opacity:1;  stroke-linecap:round; stroke-linejoin:round;"
     id="g1060">
    <circle
       cx="56878.8"
       cy="40629.9"
       r="137.795"
       id="circle1062" />
  </g>
  <g
     style="fill:#FFFFFF; fill-opacity:1.0;  stroke:#FFFFFF; stroke-width:39.3701; stroke-opacity:1;  stroke-linecap:round; stroke-linejoin:round;"
     id="g1064" />
  <g
     style="fill:#FFFFFF; fill-opacity:1.0;  stroke:#FFFFFF; stroke-width:0; stroke-opacity:1;  stroke-linecap:round; stroke-linejoin:round;"
     id="g1066">
    <circle
       cx="56878.8"
       cy="39629.9"
       r="137.795"
       id="circle1068" />
  </g>
  <g
     style="fill:#FFFFFF; fill-opacity:1.0;  stroke:#FFFFFF; stroke-width:39.3701; stroke-opacity:1;  stroke-linecap:round; stroke-linejoin:round;"
     id="g1070" />
  <g
     style="fill:#FFFFFF; fill-opacity:1.0;  stroke:#FFFFFF; stroke-width:0; stroke-opacity:1;  stroke-linecap:round; stroke-linejoin:round;"
     id="g1072">
    <circle
       cx="55878.8"
       cy="40629.9"
       r="137.795"
       id="circle1074" />
  </g>
  <g
     style="fill:#FFFFFF; fill-opacity:1.0;  stroke:#FFFFFF; stroke-width:39.3701; stroke-opacity:1;  stroke-linecap:round; stroke-linejoin:round;"
     id="g1076" />
  <g
     style="fill:#FFFFFF; fill-opacity:1.0;  stroke:#FFFFFF; stroke-width:0; stroke-opacity:1;  stroke-linecap:round; stroke-linejoin:round;"
     id="g1078">
    <circle
       cx="55878.8"
       cy="39629.9"
       r="137.795"
       id="circle1080" />
  </g>
  <g
     style="fill:#FFFFFF; fill-opacity:1.0;  stroke:#FFFFFF; stroke-width:39.3701; stroke-opacity:1;  stroke-linecap:round; stroke-linejoin:round;"
     id="g1082" />
  <g
     style="fill:#FFFFFF; fill-opacity:1.0;  stroke:#FFFFFF; stroke-width:0; stroke-opacity:1;  stroke-linecap:round; stroke-linejoin:round;"
     id="g1084">
    <circle
       cx="54878.8"
       cy="40629.9"
       r="137.795"
       id="circle1086" />
  </g>
  <g
     style="fill:#FFFFFF; fill-opacity:1.0;  stroke:#FFFFFF; stroke-width:39.3701; stroke-opacity:1;  stroke-linecap:round; stroke-linejoin:round;"
     id="g1088" />
  <g
     style="fill:#FFFFFF; fill-opacity:1.0;  stroke:#FFFFFF; stroke-width:0; stroke-opacity:1;  stroke-linecap:round; stroke-linejoin:round;"
     id="g1090">
    <circle
       cx="54878.8"
       cy="39629.9"
       r="137.795"
       id="circle1092" />
  </g>
  <g
     style="fill:#FFFFFF; fill-opacity:1.0;  stroke:#FFFFFF; stroke-width:39.3701; stroke-opacity:1;  stroke-linecap:round; stroke-linejoin:round;"
     id="g1094" />
  <g
     style="fill:#FFFFFF; fill-opacity:1.0;  stroke:#FFFFFF; stroke-width:0; stroke-opacity:1;  stroke-linecap:round; stroke-linejoin:round;"
     id="g1096">
    <circle
       cx="53878.8"
       cy="40629.9"
       r="137.795"
       id="circle1098" />
  </g>
  <g
     style="fill:#FFFFFF; fill-opacity:1.0;  stroke:#FFFFFF; stroke-width:39.3701; stroke-opacity:1;  stroke-linecap:round; stroke-linejoin:round;"
     id="g1100" />
  <g
     style="fill:#FFFFFF; fill-opacity:1.0;  stroke:#FFFFFF; stroke-width:0; stroke-opacity:1;  stroke-linecap:round; stroke-linejoin:round;"
     id="g1102">
    <circle
       cx="53878.8"
       cy="39629.9"
       r="137.795"
       id="circle1104" />
  </g>
  <g
     style="fill:#FFFFFF; fill-opacity:1.0;  stroke:#FFFFFF; stroke-width:39.3701; stroke-opacity:1;  stroke-linecap:round; stroke-linejoin:round;"
     id="g1106" />
  <g
     style="fill:#000000; fill-opacity:1.0;  stroke:#000000; stroke-width:39.3701; stroke-opacity:1;  stroke-linecap:round; stroke-linejoin:round;"
     id="g1108" />
  <path
     style="fill:none;fill-rule:evenodd;stroke:#000000;stroke-width:22.22224502;stroke-linecap:butt;stroke-linejoin:miter;stroke-opacity:1;stroke-miterlimit:4;stroke-dasharray:none"
     d="m 54513.279,42661.983 0,889.533"
     id="path4446"
     inkscape:connector-curvature="0" />
  <path
     style="fill:none;fill-rule:evenodd;stroke:#000000;stroke-width:22.22224236;stroke-linecap:butt;stroke-linejoin:miter;stroke-miterlimit:4;stroke-dasharray:none;stroke-opacity:1"
     d="m 54956.83,43108.683 -889.534,0"
     id="path4446-2"
     inkscape:connector-curvature="0" />
  <path
     style="fill:none;fill-rule:evenodd;stroke:#000000;stroke-width:22.22224236;stroke-linecap:butt;stroke-linejoin:miter;stroke-miterlimit:4;stroke-dasharray:none;stroke-opacity:1"
     d="m 54516.879,47584.16 0,889.533"
     id="path4446-3"
     inkscape:connector-curvature="0" />
  <path
     style="fill:none;fill-rule:evenodd;stroke:#000000;stroke-width:22.22224045;stroke-linecap:butt;stroke-linejoin:miter;stroke-miterlimit:4;stroke-dasharray:none;stroke-opacity:1"
     d="m 54960.43,48030.86 -889.534,0"
     id="path4446-2-5"
     inkscape:connector-curvature="0" />
  <path
     style="fill:none;fill-rule:evenodd;stroke:#000000;stroke-width:22.22224236;stroke-linecap:butt;stroke-linejoin:miter;stroke-miterlimit:4;stroke-dasharray:none;stroke-opacity:1"
     d="m 62785.985,47585.897 0,889.532"
     id="path4446-30"
     inkscape:connector-curvature="0" />
  <path
     style="fill:none;fill-rule:evenodd;stroke:#000000;stroke-width:22.22224045;stroke-linecap:butt;stroke-linejoin:miter;stroke-miterlimit:4;stroke-dasharray:none;stroke-opacity:1"
     d="m 63229.536,48032.596 -889.534,0"
     id="path4446-2-3"
     inkscape:connector-curvature="0" />
  <path
     style="fill:none;fill-rule:evenodd;stroke:#000000;stroke-width:22.22224236;stroke-linecap:butt;stroke-linejoin:miter;stroke-miterlimit:4;stroke-dasharray:none;stroke-opacity:1"
     d="m 62788.908,42666.68 0,889.533"
     id="path4446-20"
     inkscape:connector-curvature="0" />
  <path
     style="fill:none;fill-rule:evenodd;stroke:#000000;stroke-width:22.22224045;stroke-linecap:butt;stroke-linejoin:miter;stroke-miterlimit:4;stroke-dasharray:none;stroke-opacity:1"
     d="m 63232.459,43113.38 -889.534,0"
     id="path4446-2-6"
     inkscape:connector-curvature="0" />
</svg>
